<?xml version="1.0" encoding="utf-8"?>
<!-- Generator: Adobe Illustrator 24.1.1, SVG Export Plug-In . SVG Version: 6.00 Build 0)  -->
<svg version="1.1" id="Layer_1" xmlns="http://www.w3.org/2000/svg" xmlns:xlink="http://www.w3.org/1999/xlink" x="0px" y="0px"
	 viewBox="0 0 512 512" style="enable-background:new 0 0 512 512;" xml:space="preserve">
<style type="text/css">
	.st0{fill:#333333;}
</style>
<g id="XMLID_2_">
	<path id="XMLID_12_" class="st0" d="M41,48.8c-22.8,0-41,18.1-41,41c0,22.8,18.1,41,41,41s41-18.1,41-41C81.1,67,63,48.8,41,48.8z
		 M123.7,62.2v55.1H512V62.2H123.7z M41,159.9c-22.8,0-41,18.1-41,41s18.1,41,41,41s41-18.1,41-41C81.1,178,63,159.9,41,159.9z
		 M123.7,172.5v55.1H512v-55.1H123.7z M41,271c-22.8,0-41,18.1-41,41c0,22.8,18.1,41,41,41s41-18.1,41-41C81.1,289.1,63,271,41,271z
		 M123.7,283.6v55.1H512v-55.1H123.7z M41,381.2c-22.8,0-41,18.1-41,41c0,22.8,18.1,41,41,41s41-18.1,41-41
		C81.1,399.4,63,381.2,41,381.2z M123.7,394.6v55.1h249.7v-55.1H123.7z"/>
</g>
</svg>
