<?xml version="1.0" encoding="utf-8"?>
<!-- Generator: Adobe Illustrator 24.3.0, SVG Export Plug-In . SVG Version: 6.00 Build 0)  -->
<svg version="1.1" id="Layer_1" xmlns="http://www.w3.org/2000/svg" xmlns:xlink="http://www.w3.org/1999/xlink" x="0px" y="0px"
	 viewBox="0 0 512 512" style="enable-background:new 0 0 512 512;" xml:space="preserve">
<g>
	<path d="M199.11,0H28.44C12.72,0,0,12.75,0,28.44v170.67c0,15.69,12.72,28.44,28.44,28.44h170.67c15.69,0,28.44-12.75,28.44-28.44
		V28.44C227.56,12.75,214.81,0,199.11,0z M170.67,170.67H56.89V56.89h113.78V170.67z M312.89,227.56h170.67
		c15.72,0,28.44-12.75,28.44-28.44V28.44C512,12.75,499.28,0,483.56,0H312.89c-15.75,0-28.44,12.75-28.44,28.44v170.67
		C284.44,214.81,297.14,227.56,312.89,227.56z M341.33,56.89h113.78v113.78H341.33V56.89z M0,483.56C0,499.25,12.72,512,28.44,512
		h170.67c15.69,0,28.44-12.75,28.44-28.44V312.89c0-15.69-12.75-28.44-28.44-28.44H28.44C12.72,284.44,0,297.19,0,312.89V483.56z
		 M56.89,341.33h113.78v113.78H56.89V341.33z M284.44,483.56c0,15.69,12.69,28.44,28.44,28.44h170.67
		c15.72,0,28.44-12.75,28.44-28.44V312.89c0-15.69-12.72-28.44-28.44-28.44H312.89c-15.75,0-28.44,12.75-28.44,28.44V483.56z
		 M341.33,341.33h113.78v113.78H341.33V341.33z"/>
</g>
</svg>
